<?xml version="1.0" standalone="no"?>
<!DOCTYPE svg PUBLIC "-//W3C//DTD SVG 20010904//EN"
 "http://www.w3.org/TR/2001/REC-SVG-20010904/DTD/svg10.dtd">
<svg version="1.0" xmlns="http://www.w3.org/2000/svg"
 width="522.000000pt" height="493.000000pt" viewBox="0 0 522.000000 493.000000"
 preserveAspectRatio="xMidYMid meet">

<g transform="translate(0.000000,493.000000) scale(0.100000,-0.100000)"
fill="#000000" stroke="none">
<path d="M2524 4443 c-92 -186 -238 -484 -326 -663 -88 -179 -222 -451 -298
-605 -76 -154 -222 -451 -325 -660 -103 -209 -236 -479 -295 -600 -59 -121
-155 -316 -214 -433 -58 -117 -106 -220 -106 -228 0 -12 194 -14 1414 -14 778
0 1417 3 1419 7 2 5 -40 99 -94 211 l-98 202 -1044 0 c-574 0 -1046 3 -1049 6
-4 3 80 177 186 387 106 210 374 743 595 1185 222 441 406 802 410 802 4 0
123 -231 266 -512 142 -282 349 -693 460 -913 522 -1032 905 -1794 905 -1799
0 -3 -810 -6 -1800 -6 l-1801 0 -28 -62 c-27 -59 -54 -116 -247 -516 -41 -84
-74 -158 -74 -163 0 -10 4705 -18 4721 -8 5 3 -8 39 -29 80 -21 41 -121 236
-222 434 -100 198 -233 459 -295 580 -62 121 -181 355 -265 520 -84 165 -196
386 -250 490 -53 105 -186 366 -295 580 -109 215 -232 458 -275 540 -43 83
-163 319 -268 525 -105 206 -258 508 -341 670 -82 162 -155 296 -160 298 -6 2
-86 -149 -177 -335z"/>
</g>
</svg>
